<?xml version="1.0" encoding="utf-8"?>
<!-- Generator: Adobe Illustrator 18.1.0, SVG Export Plug-In . SVG Version: 6.00 Build 0)  -->
<!DOCTYPE svg PUBLIC "-//W3C//DTD SVG 1.1//EN" "http://www.w3.org/Graphics/SVG/1.1/DTD/svg11.dtd">
<svg version="1.1" id="Capa_1" xmlns="http://www.w3.org/2000/svg" xmlns:xlink="http://www.w3.org/1999/xlink" x="0px" y="0px"
	 viewBox="0 0 32 32" enable-background="new 0 0 32 32" xml:space="preserve">
<g>
	<rect x="0" y="0" fill="none" width="32" height="32"/>
	<g>
		<path fill="#FFFFFF" d="M16,30.5c-2,0-3.9-1.2-4.7-3.1H1.2l0.2-5l1.3-0.9c1.1-0.8,2.4-1.9,3-2.5v-1.7l0-2.9c0-2.8,1.1-5.4,3-7.4
			c1.4-1.4,3.5-2.4,5-2.8V1.5h4.8l0,2.7c1.5,0.4,3.5,1.3,5,2.8c2,2,3,4.6,3,7.4V19c0.5,0.6,1.8,1.7,2.9,2.5l1.3,0.9l0.1,1.6l0,0.3
			l0.1,3.2H20.7C19.8,29.2,18,30.5,16,30.5z M3.3,25.3h9.3l0.5,1.2c0.5,1.2,1.6,1.9,2.9,1.9c1.2,0,2.3-0.8,2.9-1.9l0.5-1.2h9.3
			l-0.1-1.9l-0.4-0.3c-1.4-1-2.8-2.2-3.4-2.9l-0.5-0.5v-5.3c0-2.2-0.9-4.4-2.4-5.9c-1.2-1.2-3-2-4.2-2.3l-1.4-0.4V3.6l-0.7,0v2.2
			l-1.4,0.4c-1.2,0.3-3,1.1-4.2,2.3c-1.6,1.6-2.4,3.7-2.4,5.9v5.3l-0.4,0.5c-0.7,0.8-2.1,2-3.4,2.9l-0.4,0.3l0,0.8L3.3,25.3z"/>
	</g>
</g>
</svg>
