<?xml version="1.0" encoding="utf-8"?>
<!-- Generator: Adobe Illustrator 18.1.0, SVG Export Plug-In . SVG Version: 6.00 Build 0)  -->
<!DOCTYPE svg PUBLIC "-//W3C//DTD SVG 1.1//EN" "http://www.w3.org/Graphics/SVG/1.1/DTD/svg11.dtd">
<svg version="1.1" id="Capa_1" xmlns="http://www.w3.org/2000/svg" xmlns:xlink="http://www.w3.org/1999/xlink" x="0px" y="0px"
	 viewBox="0 0 32 32" enable-background="new 0 0 32 32" xml:space="preserve">
<g>
	<rect x="0" y="0" fill="none" width="32" height="32"/>
	<g>
		<path fill="#FFFFFF" d="M3.4,25.6l0-1.3l0-0.8l0.4-0.3c1.3-0.9,2.8-2.2,3.4-2.9l0.4-0.5v-5.4c0-2.3,0.9-4.4,2.4-6
			c1.2-1.2,3-2,4.2-2.3l1.4-0.4V3.4l0.7,0v2.2l1.4,0.4c0.9,0.2,2.2,0.8,3.4,1.6l0.1,0.1L23,6.3l-0.1-0.1c-1.2-0.9-2.7-1.7-4.2-2.1
			l0-2.7h-4.8v2.7c-1.5,0.4-3.6,1.4-5,2.8c-2,2-3.1,4.7-3.1,7.5l0,2.9V19c-0.6,0.6-1.9,1.7-3,2.5l-1.3,0.9l-0.2,5.3L3.4,25.6
			L3.4,25.6z"/>
		<polygon fill="#FFFFFF" points="28.7,2.9 1.2,30 2.8,31.5 30.2,4.5 		"/>
		<path fill="#FFFFFF" d="M31.1,24.3l0-0.3L31,22.4l-1.3-0.9c-1.1-0.8-2.5-1.9-3-2.5v-4.6c0-1.2-0.2-2.4-0.6-3.5l-0.1-0.2l-1.7,1.7
			l0,0.1c0.2,0.7,0.2,1.3,0.2,2v5.4l0.5,0.5c0.6,0.7,2,2,3.4,2.9l0.4,0.3l0.1,1.9h-9.5l-0.5,1.2c-0.5,1.2-1.6,2-2.9,2
			c-1.3,0-2.4-0.8-2.9-2l-0.5-1.2h-1.5l-2.1,2.1h2.2c0.8,1.9,2.7,3.2,4.8,3.2c2.1,0,3.9-1.2,4.7-3.2h10.2L31.1,24.3z"/>
	</g>
</g>
</svg>
