<?xml version="1.0" encoding="utf-8"?>
<!-- Generator: Adobe Illustrator 18.1.0, SVG Export Plug-In . SVG Version: 6.00 Build 0)  -->
<!DOCTYPE svg PUBLIC "-//W3C//DTD SVG 1.1//EN" "http://www.w3.org/Graphics/SVG/1.1/DTD/svg11.dtd">
<svg version="1.1" id="Capa_1" xmlns="http://www.w3.org/2000/svg" xmlns:xlink="http://www.w3.org/1999/xlink" x="0px" y="0px"
	 viewBox="0 0 32 32" enable-background="new 0 0 32 32" xml:space="preserve">
<g>
	<rect x="0" y="0" fill="none" width="31.9" height="32"/>
	<g>
		<path fill="#FFFFFF" d="M31.8,8.3c-0.1-0.3-0.2-0.6-0.3-0.8c-0.1-0.2-0.3-0.3-0.6-0.4c-0.2-0.1-0.5,0-0.8,0.1l-10.4,4.4
			c-0.3,0.1-0.7,0.4-1,0.7c-0.3,0.3-0.6,0.7-0.8,1.1c-0.2,0.4-0.4,0.9-0.6,1.3c-0.1,0.5-0.2,0.9-0.2,1.4l0.1,14.3
			c0,0.4,0.1,0.7,0.2,1c0.1,0.3,0.3,0.4,0.5,0.6c0.2,0.1,0.5,0.2,0.7,0.1c0.3,0,0.6-0.1,0.9-0.3l9.4-5.9c0.2-0.2,0.5-0.4,0.7-0.6
			c0.2-0.3,0.4-0.6,0.6-0.9c0.2-0.3,0.3-0.7,0.4-1c0.1-0.4,0.2-0.7,0.2-1.1l0.9-12.8C31.9,9,31.8,8.6,31.8,8.3z"/>
		<path fill="#FFFFFF" d="M18.5,9.4l10.3-4.3c0.3-0.1,0.5-0.2,0.6-0.4c0.1-0.1,0.1-0.3,0.1-0.4c-0.1-0.1-0.2-0.3-0.4-0.4
			c-0.2-0.1-0.5-0.3-0.8-0.4L17.8,0.3c-0.3-0.1-0.6-0.1-0.9-0.2C16.6,0,16.2,0,15.8,0c-0.3,0-0.7,0-1,0.1c-0.3,0-0.6,0.1-0.9,0.2
			L3.5,3.5C3.2,3.6,2.9,3.7,2.7,3.8C2.5,4,2.4,4.1,2.3,4.2c-0.1,0.1,0,0.3,0.1,0.4C2.5,4.8,2.7,4.9,3,5.1l10.4,4.4
			c0.3,0.1,0.8,0.3,1.2,0.3C15,9.8,15.5,9.9,16,9.9c0.5,0,0.9,0,1.4-0.1C17.8,9.7,18.2,9.6,18.5,9.4z"/>
		<path fill="#FFFFFF" d="M14,13.3c-0.2-0.4-0.5-0.8-0.8-1.1c-0.3-0.3-0.6-0.5-1-0.7L1.7,7.2C1.5,7.1,1.2,7.1,1,7.1
			C0.8,7.2,0.6,7.3,0.4,7.5C0.3,7.7,0.1,8,0.1,8.3C0,8.6,0,9,0,9.4L1,22.1c0,0.4,0.1,0.7,0.2,1.1c0.1,0.4,0.3,0.7,0.4,1
			c0.2,0.3,0.4,0.6,0.6,0.9s0.5,0.5,0.7,0.6l9.4,5.9c0.3,0.2,0.6,0.3,0.9,0.3c0.3,0,0.5,0,0.7-0.1c0.2-0.1,0.4-0.3,0.5-0.6
			c0.1-0.3,0.2-0.6,0.2-1l0.1-14.3c0-0.5-0.1-0.9-0.2-1.4C14.4,14.2,14.2,13.8,14,13.3z"/>
	</g>
</g>
</svg>
