<?xml version="1.0" encoding="utf-8"?>
<!-- Generator: Adobe Illustrator 18.1.0, SVG Export Plug-In . SVG Version: 6.00 Build 0)  -->
<!DOCTYPE svg PUBLIC "-//W3C//DTD SVG 1.1//EN" "http://www.w3.org/Graphics/SVG/1.1/DTD/svg11.dtd">
<svg version="1.1" id="Capa_1" xmlns="http://www.w3.org/2000/svg" xmlns:xlink="http://www.w3.org/1999/xlink" x="0px" y="0px"
	 viewBox="0 0 54 54" enable-background="new 0 0 54 54" xml:space="preserve">
<circle fill="#EEEEED" stroke="#CCCCCC" stroke-miterlimit="10" cx="27" cy="27" r="25.5"/>
<g>
	<path fill="#FF7700" d="M44.9,17.6c-0.1-0.4-0.2-0.7-0.4-0.9c-0.2-0.2-0.4-0.4-0.7-0.4c-0.3-0.1-0.6,0-0.9,0.1l-12.1,5.1
		c-0.4,0.2-0.8,0.4-1.1,0.8c-0.4,0.3-0.7,0.8-0.9,1.2c-0.3,0.5-0.5,1-0.6,1.5C28,25.5,28,26,28,26.6L28,43c0,0.4,0.1,0.8,0.2,1.1
		c0.1,0.3,0.3,0.5,0.6,0.7c0.3,0.1,0.5,0.2,0.8,0.1c0.3,0,0.7-0.2,1-0.4l10.9-6.8c0.3-0.2,0.6-0.4,0.8-0.7c0.3-0.3,0.5-0.6,0.7-1
		c0.2-0.4,0.4-0.8,0.5-1.2c0.1-0.4,0.2-0.8,0.2-1.2L45,18.8C45,18.4,45,18,44.9,17.6z"/>
	<g>
		<path fill="#FFB500" d="M42.5,14c-0.1-0.2-0.2-0.3-0.4-0.5c-0.2-0.2-0.6-0.3-1-0.4l-12-3.8c-0.3-0.1-0.7-0.2-1.1-0.2
			C27.6,9,27.2,9,26.8,9c-0.4,0-0.8,0-1.2,0.1c-0.4,0.1-0.7,0.1-1.1,0.2l-12,3.7c-0.4,0.1-0.7,0.3-0.9,0.4c-0.2,0.2-0.4,0.3-0.4,0.5
			c-0.1,0.2,0,0.3,0.1,0.5c0.1,0.2,0.3,0.3,0.7,0.5L24,19.9c0.4,0.2,0.9,0.3,1.4,0.4c0.5,0.1,1.1,0.1,1.6,0.1s1.1-0.1,1.6-0.1
			c0.5-0.1,1-0.2,1.4-0.4l11.9-5c0.3-0.1,0.5-0.3,0.6-0.4C42.6,14.3,42.6,14.1,42.5,14z"/>
	</g>
	<g>
		<path fill="#FF9326" d="M25.8,24.9c-0.2-0.5-0.4-1-0.6-1.5c-0.3-0.5-0.6-0.9-0.9-1.2c-0.4-0.3-0.7-0.6-1.1-0.8L11,16.4
			c-0.3-0.1-0.6-0.2-0.9-0.1c-0.3,0.1-0.5,0.2-0.7,0.4c-0.2,0.2-0.3,0.5-0.4,0.9C9,18,9,18.4,9,18.8l1.1,14.8c0,0.4,0.1,0.8,0.2,1.2
			c0.1,0.4,0.3,0.8,0.5,1.2c0.2,0.4,0.4,0.7,0.7,1c0.3,0.3,0.5,0.6,0.8,0.7l10.9,6.8c0.4,0.2,0.7,0.3,1,0.4c0.3,0,0.6,0,0.8-0.1
			c0.2-0.1,0.4-0.4,0.6-0.7c0.1-0.3,0.2-0.7,0.2-1.1L26,26.6C26,26,26,25.5,25.8,24.9z"/>
	</g>
	<g>
		<path fill-rule="evenodd" clip-rule="evenodd" fill="#FFFFFF" d="M11.6,29.8c-0.1-2.7,0.7-4.4,1.9-3.7c1.3,0.7,2.4,3.6,2.5,6.3
			c0.1,2.7-0.8,4.3-2,3.5C12.8,35.2,11.7,32.5,11.6,29.8z M11.9,30.1c-0.1-2.2,0.6-3.6,1.6-3c1,0.6,2,2.9,2.1,5.2
			c0.1,2.3-0.7,3.5-1.7,2.9C12.9,34.5,12.1,32.3,11.9,30.1z M13.3,30.9c0-0.5,0.1-0.9,0.4-0.7c0.2,0.1,0.5,0.7,0.5,1.3
			c0,0.5-0.2,0.9-0.4,0.7C13.5,32,13.3,31.4,13.3,30.9z"/>
		<path fill-rule="evenodd" clip-rule="evenodd" fill="#FFFFFF" d="M18.4,33.9c-0.1-2.8,0.9-4.6,2.4-3.8c1.4,0.8,2.7,3.9,2.7,6.8
			c0,2.9-1.1,4.4-2.5,3.5C19.7,39.6,18.5,36.7,18.4,33.9z M18.8,34.2c-0.1-2.3,0.8-3.7,1.9-3.1c1.2,0.7,2.2,3.2,2.2,5.6
			c0,2.4-0.9,3.7-2,2.9C19.9,38.9,18.9,36.5,18.8,34.2z M20.4,35.1c0-0.6,0.2-0.9,0.5-0.7c0.3,0.2,0.5,0.8,0.5,1.3
			c0,0.6-0.2,0.9-0.5,0.7C20.6,36.3,20.4,35.7,20.4,35.1z"/>
		<path fill-rule="evenodd" clip-rule="evenodd" fill="#FFFFFF" d="M14.4,22.7l0.6-0.2c0,0,0.1,0.1,0.2,0.1c0.3,0.1,0.3,0.1,0.4,0
			c0-0.1,0-0.1,0-0.2c-0.1-0.5-0.4-0.7-0.4-0.7l-1.8-0.9h0c-0.1,0.1-0.2,0.1-0.2,0.2c0,0.2,0,0.3,0,0.5c0.1,0.3,0.2,0.4,0.4,0.5
			l0.1,0c0.1,0,0.2,0.2,0.3,0.3l0.4,1.7l-0.6,1.9l0.4,0.3l0.4-1.4l2.8,9.7l2-6.3c0.1,0.3,0.5,1,0.6,1.2c0,0.1,0.3-0.1,0.3-0.2
			c-0.1-0.5-0.8-1.5-0.8-1.5c-0.2-1.4-0.6-3.5-0.8-5.1L18.8,22l-1.2-0.5c-0.1,0-0.2,0.1-0.2,0.4c0,0.2,0.1,0.5,0.2,0.5l0.8,0.3
			c0.1,0.9,0.4,2.6,0.6,3.4L14.8,24L14.4,22.7z M15,24.9l2.4,8l1.7-5.4l0-0.5L15,24.9z"/>
	</g>
	<path fill="#FFFFFF" d="M37.5,22.7l2.8,1.6l0.1-1.2l1.3-0.6L41.5,25l1.4,0.8c0.1,0,0.1,0.1,0.1,0.2c0,0.1,0.1,0.2,0.1,0.3
		c0,0.1,0,0.2,0,0.3c0,0.1-0.1,0.2-0.1,0.4c0,0.1-0.1,0.1-0.1,0.2c0,0.1-0.1,0.1-0.1,0.2c0,0-0.1,0.1-0.1,0.1c0,0-0.1,0.1-0.1,0.1
		l-0.1,0l-0.1,0h-0.1c0,0-0.1,0-0.1,0l-0.8-0.4L41,33.2l-2.6,1.7l0.1-2.6c0-0.3,0-0.5-0.1-0.7c-0.1-0.2-0.2-0.4-0.3-0.5
		c-0.1-0.1-0.3-0.2-0.4-0.2c-0.2,0-0.4,0-0.5,0.2c-0.2,0.1-0.4,0.3-0.6,0.5c-0.2,0.2-0.3,0.4-0.5,0.7c-0.1,0.3-0.3,0.5-0.3,0.8
		c-0.1,0.3-0.1,0.6-0.1,0.8l-0.1,2.7l-2.9,1.8l0.1-6.7l-1.2,1.8l-0.1,0.1l-0.1,0.1l-0.1,0.1l-0.1,0.1c-0.1,0-0.1,0.1-0.2,0.1
		c-0.1,0-0.1,0-0.2,0c-0.1,0-0.1,0-0.1,0c0,0-0.1-0.1-0.1-0.1c-0.1-0.1-0.1-0.2-0.1-0.3c0-0.1,0-0.2,0-0.4c0-0.1,0.1-0.3,0.1-0.4
		c0.1-0.1,0.1-0.3,0.2-0.4L37.5,22.7z"/>
	<path fill-rule="evenodd" clip-rule="evenodd" fill="#FFFFFF" d="M31.4,11.4c0,0-0.1,0-0.1,0l-0.2,0c-0.1,0-0.1,0-0.1,0
		c0,0-0.1,0-0.1,0c0,0-0.1,0-0.1,0c0,0,0,0,0,0c0,0,0,0,0,0c0,0,0.1,0,0.1,0l2.4,0.8c0,0,0.1,0,0.1,0l0.2,0c0.1,0,0.1,0,0.1,0
		c0,0,0.1,0,0.1,0c0,0,0.1,0,0.1,0c0,0,0,0,0-0.1c0,0,0,0,0,0c0,0-0.1,0-0.1,0L31.4,11.4z M20,16.2c0.1,0.1,0.3,0.1,0.5,0.1
		c0.2,0,0.4,0,0.5,0c0.2,0,0.4,0,0.5,0c0.2,0,0.3-0.1,0.5-0.1c0.2-0.1,0.3-0.1,0.3-0.2c0.1-0.1,0.1-0.1,0.1-0.2c0-0.1,0-0.1-0.1-0.2
		c-0.1-0.1-0.2-0.1-0.3-0.2c-0.1-0.1-0.3-0.1-0.5-0.1c-0.2,0-0.4,0-0.5,0c-0.2,0-0.4,0-0.5,0c-0.2,0-0.3,0.1-0.5,0.1
		c-0.1,0-0.3,0.1-0.3,0.2c-0.1,0.1-0.1,0.1-0.1,0.2c0,0.1,0,0.1,0.1,0.2C19.8,16.1,19.9,16.2,20,16.2z M26.4,16.6l8.2-3.1l-6.8-2.3
		L19.5,14L26.4,16.6z M36.7,12.5c0.2,0,0.3,0.1,0.4,0.2c0.1,0.1,0.2,0.1,0.2,0.2c0,0.1,0,0.1,0,0.2c0,0.1-0.1,0.1-0.3,0.2l-12,4.6
		c-0.2,0.1-0.3,0.1-0.5,0.1c-0.2,0-0.4,0.1-0.6,0c-0.2,0-0.4,0-0.6-0.1c-0.2,0-0.4-0.1-0.5-0.2l-6.2-2.5c-0.1-0.1-0.2-0.1-0.3-0.2
		c-0.1-0.1-0.1-0.1-0.1-0.2c0-0.1,0.1-0.1,0.1-0.2c0.1-0.1,0.2-0.1,0.4-0.2l12-4c0.1,0,0.3-0.1,0.4-0.1c0.2,0,0.3,0,0.5,0
		c0.2,0,0.4,0,0.5,0c0.2,0,0.3,0.1,0.5,0.1L36.7,12.5z"/>
</g>
</svg>
