<svg xmlns="http://www.w3.org/2000/svg" viewBox="0 0 32 32" enable-background="new 0 0 32 32"><path fill="none" d="M0 0h32v32H0z"/><path fill="#fff" d="M16 30.5c-2 0-3.9-1.2-4.7-3.1H1.2l.2-5 1.3-.9c1.1-.8 2.4-1.9 3-2.5v-4.6c0-2.8 1.1-5.4 3-7.4 1.4-1.4 3.5-2.4 5-2.8V1.5h4.8v2.7c1.5.4 3.5 1.3 5 2.8 2 2 3 4.6 3 7.4V19c.5.6 1.8 1.7 2.9 2.5l1.3.9.1 1.6v.3l.1 3.2H20.7c-.9 1.7-2.7 3-4.7 3zM3.3 25.3h9.3l.5 1.2c.5 1.2 1.6 1.9 2.9 1.9 1.2 0 2.3-.8 2.9-1.9l.5-1.2h9.3l-.1-1.9-.4-.3c-1.4-1-2.8-2.2-3.4-2.9l-.5-.5v-5.3c0-2.2-.9-4.4-2.4-5.9-1.2-1.2-3-2-4.2-2.3l-1.4-.4V3.6h-.7v2.2l-1.4.4c-1.2.3-3 1.1-4.2 2.3-1.6 1.6-2.4 3.7-2.4 5.9v5.3l-.4.5c-.7.8-2.1 2-3.4 2.9l-.4.3v.8l-.1 1.1z"/></svg>