<svg xmlns="http://www.w3.org/2000/svg" viewBox="0 0 32 32" enable-background="new 0 0 32 32"><path fill="none" d="M0 0h32v32H0z"/><g fill="#fff"><path d="M3.4 25.6v-2.1l.4-.3c1.3-.9 2.8-2.2 3.4-2.9l.4-.5v-5.4c0-2.3.9-4.4 2.4-6 1.2-1.2 3-2 4.2-2.3l1.4-.4V3.4h.7v2.2l1.4.4c.9.2 2.2.8 3.4 1.6l.1.1L23 6.3l-.1-.1c-1.2-.9-2.7-1.7-4.2-2.1V1.4h-4.8v2.7c-1.5.4-3.6 1.4-5 2.8-2 2-3.1 4.7-3.1 7.5V19c-.6.6-1.9 1.7-3 2.5l-1.3.9-.2 5.3 2.1-2.1zM28.7 2.9L1.2 30l1.6 1.5 27.4-27zM31.1 24.3V24l-.1-1.6-1.3-.9c-1.1-.8-2.5-1.9-3-2.5v-4.6c0-1.2-.2-2.4-.6-3.5l-.1-.2-1.7 1.7v.1c.2.7.2 1.3.2 2v5.4l.5.5c.6.7 2 2 3.4 2.9l.4.3.1 1.9h-9.5l-.5 1.2c-.5 1.2-1.6 2-2.9 2-1.3 0-2.4-.8-2.9-2l-.5-1.2h-1.5L9 27.6h2.2c.8 1.9 2.7 3.2 4.8 3.2 2.1 0 3.9-1.2 4.7-3.2h10.2l.2-3.3z"/></g></svg>