<svg xmlns="http://www.w3.org/2000/svg" viewBox="0 0 32 32" enable-background="new 0 0 32 32"><path fill="none" d="M0 0h31.9v32H0z"/><g fill="#fff"><path d="M31.8 8.3c-.1-.3-.2-.6-.3-.8-.1-.2-.3-.3-.6-.4-.2-.1-.5 0-.8.1l-10.4 4.4c-.3.1-.7.4-1 .7-.3.3-.6.7-.8 1.1-.2.4-.4.9-.6 1.3-.1.5-.2.9-.2 1.4l.1 14.3c0 .4.1.7.2 1 .1.3.3.4.5.6.2.1.5.2.7.1.3 0 .6-.1.9-.3l9.4-5.9c.2-.2.5-.4.7-.6l.6-.9c.2-.3.3-.7.4-1 .1-.4.2-.7.2-1.1l.9-12.8c.2-.5.1-.9.1-1.2zM18.5 9.4l10.3-4.3c.3-.1.5-.2.6-.4.1-.1.1-.3.1-.4-.1-.1-.2-.3-.4-.4-.2-.1-.5-.3-.8-.4L17.8.3c-.3-.1-.6-.1-.9-.2-.3-.1-.7-.1-1.1-.1-.3 0-.7 0-1 .1-.3 0-.6.1-.9.2L3.5 3.5c-.3.1-.6.2-.8.3l-.4.4c-.1.1 0 .3.1.4.1.2.3.3.6.5l10.4 4.4c.3.1.8.3 1.2.3.4 0 .9.1 1.4.1.5 0 .9 0 1.4-.1.4-.1.8-.2 1.1-.4zM14 13.3c-.2-.4-.5-.8-.8-1.1-.3-.3-.6-.5-1-.7L1.7 7.2c-.2-.1-.5-.1-.7-.1-.2.1-.4.2-.6.4-.1.2-.3.5-.3.8C0 8.6 0 9 0 9.4l1 12.7c0 .4.1.7.2 1.1.1.4.3.7.4 1l.6.9s.5.5.7.6l9.4 5.9c.3.2.6.3.9.3.3 0 .5 0 .7-.1.2-.1.4-.3.5-.6.1-.3.2-.6.2-1l.1-14.3c0-.5-.1-.9-.2-1.4-.1-.3-.3-.7-.5-1.2z"/></g></svg>