<svg xmlns="http://www.w3.org/2000/svg" viewBox="0 0 54 54" enable-background="new 0 0 54 54"><circle fill="#EEEEED" stroke="#ccc" stroke-miterlimit="10" cx="27" cy="27" r="25.5"/><path fill="#f70" d="M44.9 17.6c-.1-.4-.2-.7-.4-.9-.2-.2-.4-.4-.7-.4-.3-.1-.6 0-.9.1l-12.1 5.1c-.4.2-.8.4-1.1.8-.4.3-.7.8-.9 1.2-.3.5-.5 1-.6 1.5-.2.5-.2 1-.2 1.6V43c0 .4.1.8.2 1.1.1.3.3.5.6.7.3.1.5.2.8.1.3 0 .7-.2 1-.4l10.9-6.8c.3-.2.6-.4.8-.7.3-.3.5-.6.7-1 .2-.4.4-.8.5-1.2.1-.4.2-.8.2-1.2L45 18.8c0-.4 0-.8-.1-1.2z"/><path fill="#FFB500" d="M42.5 14c-.1-.2-.2-.3-.4-.5s-.6-.3-1-.4l-12-3.8c-.3-.1-.7-.2-1.1-.2-.4-.1-.8-.1-1.2-.1-.4 0-.8 0-1.2.1-.4.1-.7.1-1.1.2l-12 3.7c-.4.1-.7.3-.9.4-.2.2-.4.3-.4.5-.1.2 0 .3.1.5s.3.3.7.5l12 5c.4.2.9.3 1.4.4.5.1 1.1.1 1.6.1s1.1-.1 1.6-.1c.5-.1 1-.2 1.4-.4l11.9-5c.3-.1.5-.3.6-.4.1-.2.1-.4 0-.5z"/><path fill="#FF9326" d="M25.8 24.9l-.6-1.5c-.3-.5-.6-.9-.9-1.2-.4-.3-.7-.6-1.1-.8l-12.2-5c-.3-.1-.6-.2-.9-.1-.3.1-.5.2-.7.4-.2.2-.3.5-.4.9v1.2l1.1 14.8c0 .4.1.8.2 1.2.1.4.3.8.5 1.2.2.4.4.7.7 1 .3.3.5.6.8.7l10.9 6.8c.4.2.7.3 1 .4.3 0 .6 0 .8-.1.2-.1.4-.4.6-.7.1-.3.2-.7.2-1.1l.2-16.4c0-.6 0-1.1-.2-1.7z"/><g fill-rule="evenodd" clip-rule="evenodd" fill="#fff"><path d="M11.6 29.8c-.1-2.7.7-4.4 1.9-3.7 1.3.7 2.4 3.6 2.5 6.3.1 2.7-.8 4.3-2 3.5-1.2-.7-2.3-3.4-2.4-6.1zm.3.3c-.1-2.2.6-3.6 1.6-3 1 .6 2 2.9 2.1 5.2.1 2.3-.7 3.5-1.7 2.9-1-.7-1.8-2.9-2-5.1zm1.4.8c0-.5.1-.9.4-.7.2.1.5.7.5 1.3 0 .5-.2.9-.4.7-.3-.2-.5-.8-.5-1.3zM18.4 33.9c-.1-2.8.9-4.6 2.4-3.8 1.4.8 2.7 3.9 2.7 6.8s-1.1 4.4-2.5 3.5c-1.3-.8-2.5-3.7-2.6-6.5zm.4.3c-.1-2.3.8-3.7 1.9-3.1 1.2.7 2.2 3.2 2.2 5.6 0 2.4-.9 3.7-2 2.9-1-.7-2-3.1-2.1-5.4zm1.6.9c0-.6.2-.9.5-.7.3.2.5.8.5 1.3 0 .6-.2.9-.5.7-.3-.1-.5-.7-.5-1.3zM14.4 22.7l.6-.2s.1.1.2.1c.3.1.3.1.4 0v-.2c-.1-.5-.4-.7-.4-.7l-1.8-.9c-.1.1-.2.1-.2.2v.5c.1.3.2.4.4.5h.1c.1 0 .2.2.3.3l.4 1.7-.6 1.9.4.3.4-1.4 2.8 9.7 2-6.3c.1.3.5 1 .6 1.2 0 .1.3-.1.3-.2-.1-.5-.8-1.5-.8-1.5-.2-1.4-.6-3.5-.8-5.1l.1-.6-1.2-.5c-.1 0-.2.1-.2.4 0 .2.1.5.2.5l.8.3c.1.9.4 2.6.6 3.4L14.8 24l-.4-1.3zm.6 2.2l2.4 8 1.7-5.4V27L15 24.9z"/></g><path fill="#fff" d="M37.5 22.7l2.8 1.6.1-1.2 1.3-.6-.2 2.5 1.4.8c.1 0 .1.1.1.2s.1.2.1.3v.3c0 .1-.1.2-.1.4 0 .1-.1.1-.1.2s-.1.1-.1.2l-.1.1-.1.1h-.4l-.8-.4-.4 6-2.6 1.7.1-2.6c0-.3 0-.5-.1-.7-.1-.2-.2-.4-.3-.5-.1-.1-.3-.2-.4-.2-.2 0-.4 0-.5.2-.2.1-.4.3-.6.5-.2.2-.3.4-.5.7-.1.3-.3.5-.3.8-.1.3-.1.6-.1.8l-.1 2.7-2.9 1.8.1-6.7-1.2 1.8-.1.1-.1.1-.1.1-.1.1c-.1 0-.1.1-.2.1H30.7l-.1-.1c-.1-.1-.1-.2-.1-.3v-.4c0-.1.1-.3.1-.4.1-.1.1-.3.2-.4l6.7-9.7z"/><path fill-rule="evenodd" clip-rule="evenodd" fill="#fff" d="M31.4 11.4h-.6.1l2.4.8h.6v-.1h-.1l-2.4-.7zM20 16.2c.1.1.3.1.5.1h1c.2 0 .3-.1.5-.1.2-.1.3-.1.3-.2.1-.1.1-.1.1-.2s0-.1-.1-.2-.2-.1-.3-.2c-.1-.1-.3-.1-.5-.1h-1c-.2 0-.3.1-.5.1-.1 0-.3.1-.3.2-.1.1-.1.1-.1.2s0 .1.1.2.2.2.3.2zm6.4.4l8.2-3.1-6.8-2.3-8.3 2.8 6.9 2.6zm10.3-4.1c.2 0 .3.1.4.2.1.1.2.1.2.2v.2c0 .1-.1.1-.3.2l-12 4.6c-.2.1-.3.1-.5.1s-.4.1-.6 0c-.2 0-.4 0-.6-.1-.2 0-.4-.1-.5-.2l-6.2-2.5c-.1-.1-.2-.1-.3-.2-.1-.1-.1-.1-.1-.2s.1-.1.1-.2c.1-.1.2-.1.4-.2l12-4c.1 0 .3-.1.4-.1h1c.2 0 .3.1.5.1l6.1 2.1z"/></svg>